<svg height='100px' width='100px'  fill="#000000" xmlns="http://www.w3.org/2000/svg" xmlns:xlink="http://www.w3.org/1999/xlink" version="1.1" x="0px" y="0px" viewBox="0 0 64 64" enable-background="new 0 0 64 64" xml:space="preserve"><path d="M29.26,30.736l3.125,0.5l0.316-1.975l-3.125-0.5L29.26,30.736z M15.917,44.999c-0.552,0-1,0.446-1,1.001  c0,0.553,0.448,1,1,1c0.553,0,1-0.447,1-1C16.917,45.445,16.468,44.999,15.917,44.999z M15.917,15.998c0.553,0,1-0.447,1-1  c0-0.553-0.447-1-1-1c-0.552,0-1,0.447-1,1C14.917,15.551,15.363,15.998,15.917,15.998z M30.917,15.998c0.553,0,1-0.447,1-1  c0-0.553-0.447-1-1-1c-0.552,0-1,0.447-1,1C29.917,15.551,30.364,15.998,30.917,15.998z M57.184,20.576  c-0.061-1.359-0.854-2.506-1.498-3.434l-0.26-0.376c-0.729-1.082-1.551-2.167-2.443-3.229c-1.643-1.95-3.485-3.741-5.479-5.323  c-3.949-3.134-8.591-5.499-13.423-6.839c-5.438-1.51-11.288-1.783-16.864-0.785c-2.588,0.462-5.499,1.34-7.987,2.409  C7.167,3.885,6.571,5.875,6.896,7.456c0.331,1.609,1.502,2.76,3.019,3.065V61c0,0.811,0.317,1.564,0.874,2.107  C11.35,63.684,12.104,64,12.917,64c1.654,0,3-1.346,3-3v-1.172c0.316,0.113,0.653,0.172,1,0.172c1.654,0,3-1.346,3-3v-1.586  l11.369-11.37c0.149,0.351,0.362,0.668,0.635,0.933c0.56,0.576,1.314,0.895,2.125,0.895c1.654,0,3-1.348,3-3.001v-1.172  c0.315,0.112,0.653,0.172,1,0.172c1.654,0,3-1.347,3-3v-4.586l10.106-10.107c0.601,0.356,1.272,0.546,1.979,0.546  c1.795,0,3.321-1.153,3.853-2.744c0.127-0.167,0.201-0.375,0.201-0.602v-0.715C57.188,20.633,57.186,20.604,57.184,20.576z   M31.046,41.455l-11.13,11.131v-2.174l11.13-11.198V41.455z M39.928,27.582c-0.568,0.57-0.882,1.321-0.882,2.117v9.17  c0,0.552-0.448,1-1,1c-0.265,0-0.5-0.1-0.683-0.286c-0.026-0.028-0.055-0.054-0.086-0.078c-0.149-0.174-0.231-0.396-0.231-0.636  c0-0.553-0.446-1-1-1c-0.553,0-1,0.447-1,1v4c0,0.552-0.448,1-1,1c-0.267,0-0.513-0.102-0.712-0.307  c-0.186-0.182-0.288-0.428-0.288-0.693v-6.08c0-0.405-0.244-0.771-0.619-0.925c-0.375-0.154-0.805-0.067-1.091,0.22l-13.13,13.211  c-0.186,0.188-0.291,0.439-0.291,0.705v7c0,0.552-0.449,1-1,1c-0.264,0-0.5-0.1-0.683-0.287c-0.026-0.025-0.054-0.052-0.083-0.074  c-0.152-0.176-0.234-0.397-0.234-0.639c0-0.553-0.448-1-1-1c-0.552,0-1,0.447-1,1v4c0,0.552-0.449,1-1,1  c-0.267,0-0.513-0.104-0.712-0.307c-0.186-0.182-0.288-0.428-0.288-0.693v-8.686c0.838,0.635,1.87,1.024,3,1.024  c0.121,0,0.241-0.002,0.361-0.019c0.548-0.065,0.938-0.564,0.872-1.112s-0.571-0.95-1.114-0.871  c-0.039,0.004-0.079,0.002-0.119,0.002c-1.654,0-3-1.346-3-3V10.437c0.269-0.068,0.538-0.142,0.812-0.255  c1.056-0.436,2.472-0.91,3.607-1.208c2.754-0.723,5.628-1.046,8.497-0.962c4.891,0.147,9.713,1.509,13.95,3.937  c3.5,2.006,6.563,4.697,8.943,7.829L39.928,27.582z M41.046,31.455v-1.756c0-0.262,0.104-0.511,0.297-0.704l7.539-7.547  c0.058,0.095,0.115,0.181,0.173,0.279c0.203,0.343,0.42,0.707,0.666,1.055L41.046,31.455z M53.133,22.722  c-0.445,0-0.865-0.153-1.217-0.442c-0.411-0.34-0.782-0.966-1.141-1.572c-0.186-0.312-0.365-0.616-0.553-0.889  c-2.646-3.883-6.259-7.205-10.449-9.607c-4.52-2.59-9.665-4.043-14.882-4.2c-0.322-0.01-0.645-0.015-0.967-0.015  c-2.744,0-5.468,0.351-8.099,1.042c-1.214,0.319-2.73,0.827-3.861,1.294c-0.443,0.183-0.861,0.275-1.243,0.275  c-1.141,0-1.718-0.838-1.866-1.556C8.7,6.29,8.922,5.308,10.021,4.836c2.354-1.011,5.105-1.841,7.549-2.278  c5.283-0.943,10.827-0.686,15.978,0.743c4.576,1.27,8.973,3.51,12.713,6.479c1.889,1.5,3.637,3.197,5.192,5.045  c0.847,1.006,1.625,2.035,2.315,3.059l0.272,0.397c0.563,0.813,1.146,1.652,1.146,2.457C55.188,21.963,54.12,22.722,53.133,22.722z   M19.481,35.7l-0.874,2.009l-2.111-0.576l-0.526,1.93l2.946,0.805c0.088,0.023,0.176,0.035,0.263,0.035  c0.39,0,0.755-0.229,0.917-0.603l0.875-2.01l2.116,0.575l0.524-1.93l-2.95-0.803C20.181,35.004,19.681,35.244,19.481,35.7z   M37.916,14.998c-2.757,0-5,2.243-5,5s2.243,5,5,5s5-2.243,5-5S40.673,14.998,37.916,14.998z M37.916,22.998c-1.654,0-3-1.346-3-3  c0-1.654,1.346-3,3-3s3,1.346,3,3C40.916,21.652,39.57,22.998,37.916,22.998z M27.792,13.528c0.073-1.111-0.482-2.191-1.422-2.778  c-0.043-0.032-0.089-0.06-0.137-0.084c-1.83-1.082-4.165-0.752-5.717,0.776c-1.548,1.573-1.854,3.849-0.773,5.692  c0.029,0.059,0.063,0.114,0.102,0.166c0.553,0.875,1.529,1.414,2.576,1.414c1.07,0,1.999-0.575,2.471-1.515  c0.028-0.041,0.049-0.088,0.072-0.134c0.379,0.349,0.657,0.72,0.596,0.9c-0.175,0.524,0.108,1.09,0.632,1.265  c0.105,0.035,0.212,0.052,0.316,0.052c0.419,0,0.809-0.265,0.949-0.684c0.39-1.171-0.304-2.197-1.021-2.894  C27.226,15.244,27.731,14.463,27.792,13.528z M25.326,14.047c-0.057,0.024-0.11,0.053-0.161,0.085  c-0.359,0.167-0.701,0.409-1.02,0.698c-0.011,0.008-0.021,0.018-0.032,0.026c-0.033,0.03-0.069,0.053-0.101,0.084  c-0.332,0.339-0.603,0.728-0.792,1.134c-0.034,0.051-0.063,0.106-0.087,0.165c-0.163,0.391-0.477,0.473-0.711,0.473  c-0.368,0-0.724-0.202-0.905-0.515c-0.012-0.021-0.025-0.042-0.039-0.062c-0.771-1.296-0.235-2.581,0.454-3.281  c0.905-0.891,2.222-1.103,3.295-0.462c0.019,0.013,0.038,0.025,0.058,0.036c0.383,0.223,0.534,0.646,0.513,0.967  C25.777,13.707,25.619,13.926,25.326,14.047z M30.417,23.998c0-0.552-0.447-1-1-1c-0.552,0-1,0.448-1,1c0,0.552,0.448,1,1,1  C29.969,24.998,30.417,24.55,30.417,23.998z M20.917,21.998c-2.757,0-5,2.243-5,5s2.243,5,5,5s5-2.243,5-5  S23.672,21.998,20.917,21.998z M20.917,29.999c-1.654,0-3-1.346-3-3s1.346-3,3-3s3,1.346,3,3S22.57,29.999,20.917,29.999z"></path></svg>